<svg width="31" height="31" viewBox="0 0 37 37" fill="none" xmlns="http://www.w3.org/2000/svg">
<path fill-rule="evenodd" clip-rule="evenodd" d="M10.9818 5.48296C9.27194 6.46994 7.77327 7.78399 6.5713 9.3501C5.36936 10.9162 4.48768 12.7037 3.97656 14.6106C2.94437 18.4616 3.48434 22.565 5.47771 26.0179C7.47108 29.4709 10.7546 31.9906 14.6058 33.0227C18.4571 34.0548 22.5607 33.515 26.0138 31.5217C26.4107 31.3103 26.8741 31.2613 27.3063 31.385C27.7386 31.5087 28.1058 31.7955 28.3308 32.1849C28.5559 32.5741 28.6208 33.0354 28.5121 33.4718C28.4035 33.9079 28.1296 34.2851 27.7483 34.5233C24.2504 36.5416 20.1882 37.3603 16.1816 36.8541C12.1749 36.3476 8.44402 34.5443 5.55826 31.7194C2.67252 28.8944 0.790431 25.2028 0.199296 21.2079C-0.391839 17.2131 0.340443 13.1347 2.28437 9.59502C4.22829 6.05537 7.27709 3.24895 10.9654 1.60414C14.6537 -0.0406842 18.779 -0.433566 22.7115 0.485459C26.644 1.40448 30.1678 3.58494 32.7449 6.69399C35.3221 9.80308 36.8112 13.67 36.9849 17.7045C36.9942 17.7774 36.9988 17.8507 36.9988 17.9242V18.1647C37.0004 18.3111 37.0004 18.4576 36.9988 18.6041V21.3929C36.9997 22.7704 36.5531 24.1108 35.7264 25.2127C34.8998 26.3146 33.7378 27.1184 32.4149 27.503C31.0921 27.8878 29.6803 27.8325 28.3917 27.3458C27.1031 26.859 26.0071 25.9671 25.2692 24.8039C23.8013 26.3808 21.8291 27.3959 19.6928 27.6744C17.5564 27.9526 15.3899 27.4764 13.567 26.3283C11.7442 25.1799 10.3793 23.4314 9.70794 21.3844C9.03656 19.3374 9.10076 17.1203 9.88946 15.1155C10.6782 13.1108 12.1419 11.4442 14.0281 10.4033C15.9144 9.36236 18.1048 9.01241 20.2215 9.41384C22.3381 9.81524 24.2484 10.9428 25.6225 12.602C26.9965 14.2612 27.7485 16.348 27.7483 18.5023V21.3929C27.7483 22.1596 28.0529 22.8948 28.5949 23.437C29.137 23.979 29.8724 24.2836 30.6391 24.2836C31.4057 24.2836 32.1411 23.979 32.6832 23.437C33.2253 22.8948 33.5299 22.1596 33.5299 21.3929V18.1948C33.4767 15.5824 32.7433 13.0291 31.4022 10.7865C30.0611 8.54401 28.1588 6.68979 25.8825 5.40672C23.6061 4.12368 21.0346 3.45611 18.4217 3.46989C15.8087 3.48365 13.2444 4.1783 10.9818 5.48528V5.48296ZM24.2794 18.5023C24.2794 16.969 23.6702 15.4986 22.586 14.4144C21.5017 13.3302 20.0312 12.7211 18.4978 12.7211C16.9644 12.7211 15.4939 13.3302 14.4096 14.4144C13.3253 15.4986 12.7162 16.969 12.7162 18.5023C12.7162 20.0356 13.3253 21.5061 14.4096 22.5903C15.4939 23.6744 16.9644 24.2836 18.4978 24.2836C20.0312 24.2836 21.5017 23.6744 22.586 22.5903C23.6702 21.5061 24.2794 20.0356 24.2794 18.5023Z" fill="#B9B9B9"/>
</svg>
