<svg width="31" height="31" viewBox="0 0 31 31" fill="none" xmlns="http://www.w3.org/2000/svg">
<path fill-rule="evenodd" clip-rule="evenodd" d="M3.32143 3.875C3.32143 3.56927 3.56927 3.32143 3.875 3.32143H27.125C27.4308 3.32143 27.6786 3.56927 27.6786 3.875V27.125C27.6786 27.4308 27.4308 27.6786 27.125 27.6786H3.875C3.56927 27.6786 3.32143 27.4308 3.32143 27.125V3.875ZM3.875 0C1.73489 0 0 1.73489 0 3.875V27.125C0 29.2651 1.73489 31 3.875 31H27.125C29.2651 31 31 29.2651 31 27.125V3.875C31 1.73489 29.2651 0 27.125 0H3.875ZM23.8707 11.6922C24.5192 11.0436 24.5192 9.9921 23.8707 9.34355C23.2221 8.69501 22.1708 8.69501 21.5222 9.34355L12.7321 18.1335L9.47787 14.8793C8.82933 14.2307 7.77781 14.2307 7.12927 14.8793C6.48073 15.5278 6.48073 16.5793 7.12927 17.2279L11.5578 21.6564C12.2064 22.3049 13.2579 22.3049 13.9064 21.6564L23.8707 11.6922Z" fill="#B9B9B9"/>
</svg>
