<svg width="44" height="44" viewBox="0 0 44 44" fill="#989898" xmlns="http://www.w3.org/2000/svg">
<path fill-rule="evenodd" clip-rule="evenodd" d="M39.4819 8.643L42.8264 5.29856C43.2595 4.86546 44 5.1722 44 5.78471V15.8124C44 16.1921 43.6922 16.4999 43.3125 16.4999H33.2848C32.6724 16.4999 32.3656 15.7594 32.7987 15.3263L36.5338 11.5912C33.2886 7.06802 27.9865 4.125 21.9999 4.125C12.128 4.125 4.12497 12.1279 4.12497 22C4.12497 31.8722 12.128 39.875 21.9999 39.875C31.2463 39.875 38.8552 32.8526 39.7803 23.8516C39.8967 22.7185 40.9097 21.8943 42.0428 22.0108C43.1759 22.1273 44.0001 23.1402 43.8836 24.2734C42.7446 35.3565 33.383 44 21.9999 44C9.84989 44 0 34.1503 0 22C0 9.84973 9.84989 0 21.9999 0C29.1289 0 35.4631 3.39078 39.4819 8.643ZM22.6876 11C21.5486 11 20.6251 11.9234 20.6251 13.0625V21.2911L15.0468 23.5225C13.9892 23.9456 13.4746 25.1459 13.8976 26.2035C14.3208 27.2611 15.5212 27.7755 16.5787 27.3525L23.4536 24.6025C24.2367 24.2893 24.7501 23.5309 24.7501 22.6875V13.0625C24.7501 11.9234 23.8267 11 22.6876 11Z" />
</svg>
