<svg width="40" height="42" viewBox="0 0 40 42" xmlns="http://www.w3.org/2000/svg">
<path fill-rule="evenodd" clip-rule="evenodd" d="M20.4457 4.43608C20.3191 4.33513 20.162 4.28015 20 4.28015C19.838 4.28015 19.6809 4.33513 19.5543 4.43608L4.55429 16.42C4.47026 16.487 4.40246 16.5721 4.35594 16.6689C4.30946 16.7658 4.28543 16.8719 4.28571 16.9793V37.0067C4.28571 37.4005 4.60571 37.72 5 37.72H12.8571V22.7401C12.8571 22.1725 13.0829 21.6282 13.4848 21.2269C13.8866 20.8256 14.4317 20.6001 15 20.6001H25C25.5683 20.6001 26.1134 20.8256 26.5151 21.2269C26.9171 21.6282 27.1429 22.1725 27.1429 22.7401V37.72H35C35.1894 37.72 35.3711 37.645 35.5051 37.5112C35.6391 37.3773 35.7143 37.1959 35.7143 37.0067V16.9764C35.714 16.8695 35.69 16.764 35.6434 16.6677C35.5969 16.5714 35.5294 16.4867 35.4457 16.42L20.4457 4.43608ZM16.8743 1.09483C17.761 0.386128 18.8629 0 19.9986 0C21.1343 0 22.2362 0.386128 23.1229 1.09483L38.1229 13.0788C39.3086 14.0261 40 15.4613 40 16.9793V37.0067C40 38.3309 39.4731 39.6009 38.5354 40.5374C37.5977 41.4738 36.326 42 35 42H25C24.4317 42 23.8866 41.7746 23.4848 41.3731C23.0829 40.972 22.8571 40.4275 22.8571 39.86V24.8801H17.1429V39.86C17.1429 40.4275 16.9171 40.972 16.5152 41.3731C16.1134 41.7746 15.5683 42 15 42H5C3.67391 42 2.40214 41.4738 1.46446 40.5374C0.526771 39.6009 0 38.3309 0 37.0067V16.9764C0 15.4613 0.691428 14.0261 1.87714 13.0788L16.8771 1.09483H16.8743Z" fill="black"/>
</svg>
