<svg width="39" height="42" viewBox="0 0 39 42" fill="none" xmlns="http://www.w3.org/2000/svg">
<path opacity="0.49" fill-rule="evenodd" clip-rule="evenodd" d="M27.6306 12.905C27.6306 15.0445 26.7737 17.0964 25.2485 18.6093C23.7232 20.1222 21.6545 20.9721 19.4975 20.9721C17.3404 20.9721 15.2717 20.1222 13.7465 18.6093C12.2212 17.0964 11.3643 15.0445 11.3643 12.905C11.3643 10.7655 12.2212 8.71353 13.7465 7.20066C15.2717 5.68778 17.3404 4.83786 19.4975 4.83786C21.6545 4.83786 23.7232 5.68778 25.2485 7.20066C26.7737 8.71353 27.6306 10.7655 27.6306 12.905ZM27.829 22.8211C29.8828 21.1226 31.3591 18.8378 32.0576 16.2775C32.7557 13.7172 32.6416 11.0057 31.731 8.51189C30.8204 6.01811 29.1573 3.86312 26.9682 2.34008C24.7789 0.817071 22.1698 0 19.4958 0C16.8218 0 14.2127 0.817071 12.0235 2.34008C9.8343 3.86312 8.17124 6.01811 7.26066 8.51189C6.35004 11.0057 6.23605 13.7172 6.93423 16.2775C7.6324 18.8378 9.10883 21.1226 11.1626 22.8211C7.96011 24.3229 5.22959 26.6603 3.26342 29.583C1.29726 32.5059 0.169452 35.9037 0.000738492 39.4136C-0.0149422 40.046 0.219617 40.6595 0.654251 41.1222C1.08885 41.5853 1.68895 41.8611 2.32606 41.8905C2.96315 41.9202 3.58657 41.7011 4.06281 41.2803C4.53905 40.8595 4.83028 40.2706 4.87411 39.6395C5.05147 35.9108 6.66957 32.3932 9.39258 29.8169C12.1155 27.2404 15.7342 25.8029 19.4975 25.8029C23.2607 25.8029 26.8794 27.2404 29.6024 29.8169C32.3253 32.3932 33.9435 35.9108 34.1208 39.6395C34.1289 39.9618 34.2015 40.279 34.3349 40.573C34.4683 40.867 34.6595 41.1316 34.8974 41.351C35.1352 41.5707 35.415 41.7411 35.7198 41.8521C36.0249 41.9631 36.3493 42.0125 36.674 41.9973C36.9986 41.9825 37.3168 41.9031 37.6102 41.7643C37.9034 41.6256 38.1659 41.4304 38.3819 41.1896C38.5983 40.9489 38.7635 40.6679 38.8686 40.3629C38.974 40.058 39.0166 39.735 38.9942 39.4136C38.825 35.9034 37.6968 32.5052 35.7302 29.5823C33.7633 26.6596 31.0322 24.3224 27.829 22.8211Z" fill="white"/>
</svg>
