<svg width="47" height="47" viewBox="0 0 42 42" fill="#000" xmlns="http://www.w3.org/2000/svg">
<path clip-rule="evenodd" d="M3.9375 21C3.9375 11.5766 11.5766 3.9375 21 3.9375C30.4235 3.9375 38.0625 11.5766 38.0625 21C38.0625 30.4235 30.4235 38.0625 21 38.0625C11.5766 38.0625 3.9375 30.4235 3.9375 21ZM21 0C9.40201 0 0 9.40201 0 21C0 32.598 9.40201 42 21 42C32.598 42 42 32.598 42 21C42 9.40201 32.598 0 21 0ZM16.7439 13.7213C16.3065 13.4589 15.75 13.774 15.75 14.2841V27.7161C15.75 28.2261 16.3065 28.5411 16.7439 28.2786L27.9371 21.5627C28.3618 21.3078 28.3618 20.6922 27.9371 20.4373L16.7439 13.7213Z" fill="black"/>
</svg>
