<svg xmlns="http://www.w3.org/2000/svg" width="24" height="24">
  <path fill="none" d="M-1-1h26v26H-1z"/>
  <g>
    <path d="M12.655.113c-4.218 0-7.954 2.349-9.883 5.933L0 3.203v8.034h7.834L4.46 7.777c1.567-3.09 4.58-5.192 8.196-5.192 4.942 0 9.04 4.203 9.04 9.27s-4.098 9.27-9.04 9.27c-3.977 0-7.231-2.595-8.557-6.18H1.567c1.326 4.945 5.785 8.653 11.088 8.653 6.388 0 11.45-5.315 11.45-11.743 0-6.427-5.182-11.742-11.45-11.742zm-1.808 6.18v6.304l5.665 3.461.964-1.607-4.82-2.966V6.293h-1.809z"/>
  </g>
</svg>
