<svg width="24" height="24" xmlns="http://www.w3.org/2000/svg">

 <g>
  <title>background</title>
  <rect fill="none" id="canvas_background" height="26" width="26" y="-1" x="-1"/>
 </g>
 <g>
  <title>Layer 1</title>
  <path d="m12.655226,0.113021c-4.218409,0 -7.954713,2.348482 -9.883129,5.933006l-2.772097,-2.842899l0,8.03428l7.834187,0l-3.374727,-3.46092c1.566837,-3.090108 4.579986,-5.191381 8.195765,-5.191381c4.941564,0 9.039447,4.202546 9.039447,9.270323s-4.097883,9.270323 -9.039447,9.270323c-3.977357,0 -7.231558,-2.59569 -8.557343,-6.180215l-2.531045,0c1.325786,4.944172 5.785246,8.652301 11.088388,8.652301c6.387876,0 11.449966,-5.314985 11.449966,-11.742409c0,-6.427424 -5.182616,-11.742409 -11.449966,-11.742409zm-1.807889,6.180215l0,6.303819l5.66472,3.46092l0.964208,-1.606856l-4.821038,-2.966503l0,-5.191381l-1.807889,0z"/>
 </g>
</svg>
