<svg width="44" height="44" viewBox="0 0 44 44" fill="#989898" xmlns="http://www.w3.org/2000/svg">
  <path fill-rule="evenodd" clip-rule="evenodd" d="M4.51806 8.643L1.17363 5.29856C0.740532 4.86546 0 5.1722 0 5.78471V15.8124C0 16.1921 0.307803 16.4999 0.687496 16.4999H10.7152C11.3276 16.4999 11.6344 15.7594 11.2013 15.3263L7.4662 11.5912C10.7114 7.06802 16.0135 4.125 22.0001 4.125C31.872 4.125 39.875 12.1279 39.875 22C39.875 31.8722 31.872 39.875 22.0001 39.875C12.7537 39.875 5.14481 32.8526 4.21974 23.8516C4.10328 22.7185 3.09032 21.8943 1.9572 22.0108C0.824085 22.1273 -7.9405e-05 23.1402 0.116375 24.2734C1.25543 35.3565 10.617 44 22.0001 44C34.1501 44 44 34.1503 44 22C44 9.84973 34.1501 0 22.0001 0C14.8711 0 8.53694 3.39078 4.51806 8.643ZM21.3124 11C22.4514 11 23.3749 11.9234 23.3749 13.0625V21.2911L28.9532 23.5225C30.0108 23.9456 30.5254 25.1459 30.1024 26.2035C29.6792 27.2611 28.4788 27.7755 27.4213 27.3525L20.5464 24.6025C19.7633 24.2893 19.2499 23.5309 19.2499 22.6875V13.0625C19.2499 11.9234 20.1733 11 21.3124 11Z" />
</svg>
