<svg width="47" height="47" viewBox="0 0 47 47" fill="none" xmlns="http://www.w3.org/2000/svg">
<path fill-rule="evenodd" clip-rule="evenodd" d="M35.2024 20.1148C35.2024 22.0961 34.8122 24.0581 34.0538 25.8886C33.2957 27.7191 32.1843 29.3823 30.7835 30.7834C29.3823 32.1842 27.7191 33.2957 25.8886 34.0541C24.0581 34.8122 22.0962 35.2024 20.1148 35.2024C18.1335 35.2024 16.1716 34.8122 14.341 34.0541C12.5105 33.2957 10.8473 32.1842 9.44629 30.7834C8.04525 29.3823 6.93393 27.7191 6.1757 25.8886C5.41746 24.0581 5.02723 22.0961 5.02723 20.1148C5.02723 16.1133 6.61679 12.2758 9.44629 9.44629C12.2757 6.6168 16.1133 5.02724 20.1148 5.02724C24.1163 5.02724 27.9539 6.6168 30.7835 9.44629C33.6129 12.2758 35.2024 16.1133 35.2024 20.1148ZM32.4531 36.0071C28.4109 39.1453 23.3247 40.6249 18.2299 40.1448C13.1351 39.665 8.4147 37.2614 5.02975 33.4234C1.64476 29.5855 -0.150328 24.6019 0.00986896 19.487C0.170099 14.3722 2.27358 9.5106 5.89208 5.89209C9.51062 2.27358 14.3721 0.1701 19.487 0.00987011C24.6019 -0.150337 29.5855 1.64476 33.4235 5.02975C37.2614 8.4147 39.665 13.1351 40.1448 18.2299C40.6249 23.3247 39.1453 28.4109 36.0071 32.4531L46.1996 42.6457C46.4467 42.876 46.6449 43.1536 46.7823 43.4621C46.9198 43.7705 46.9936 44.1034 46.9996 44.4411C47.0056 44.7787 46.9433 45.114 46.8169 45.4271C46.6905 45.7403 46.502 46.0246 46.2633 46.2633C46.0246 46.5024 45.7403 46.6905 45.4271 46.8169C45.114 46.9433 44.7787 47.0056 44.4411 46.9996C44.1034 46.9936 43.7702 46.9198 43.4621 46.7823C43.1536 46.6449 42.876 46.4467 42.6457 46.1996L32.4531 36.0071Z" fill="#1E1E1E"/>
</svg>
