<svg width="61" height="61" viewBox="0 0 61 61" fill="none" xmlns="http://www.w3.org/2000/svg">
    <path d="M30.5 5.08325C25.5704 5.09262 20.7499 6.53533 16.6256 9.23567C12.5014 11.936 9.25138 15.7774 7.27154 20.292C5.2917 24.8066 4.66744 29.7995 5.4748 34.6625C6.28216 39.5256 8.4863 44.0489 11.8187 47.6816C14.1988 50.2615 17.0875 52.3205 20.3027 53.7287C23.5179 55.137 26.9899 55.864 30.5 55.864C34.0101 55.864 37.4821 55.137 40.6973 53.7287C43.9125 52.3205 46.8012 50.2615 49.1812 47.6816C52.5137 44.0489 54.7178 39.5256 55.5252 34.6625C56.3325 29.7995 55.7083 24.8066 53.7284 20.292C51.7486 15.7774 48.4986 11.936 44.3744 9.23567C40.2501 6.53533 35.4296 5.09262 30.5 5.08325ZM30.5 50.8333C25.2348 50.8253 20.1781 48.7752 16.3937 45.1145C17.5427 42.3175 19.4972 39.9252 22.0089 38.2416C24.5206 36.5579 27.4762 35.659 30.5 35.659C33.5238 35.659 36.4793 36.5579 38.991 38.2416C41.5028 39.9252 43.4573 42.3175 44.6062 45.1145C40.8219 48.7752 35.7651 50.8253 30.5 50.8333ZM25.4166 25.4166C25.4166 24.4112 25.7148 23.4284 26.2733 22.5924C26.8319 21.7565 27.6258 21.1049 28.5547 20.7202C29.4835 20.3355 30.5056 20.2348 31.4917 20.4309C32.4778 20.6271 33.3835 21.1112 34.0944 21.8221C34.8054 22.533 35.2895 23.4388 35.4856 24.4249C35.6818 25.4109 35.5811 26.433 35.1964 27.3619C34.8116 28.2908 34.1601 29.0847 33.3241 29.6432C32.4882 30.2018 31.5054 30.4999 30.5 30.4999C29.1518 30.4999 27.8588 29.9644 26.9055 29.011C25.9522 28.0577 25.4166 26.7648 25.4166 25.4166ZM48.0629 40.6666C45.792 36.7823 42.2969 33.761 38.125 32.0758C39.4191 30.6083 40.2623 28.7987 40.5535 26.8639C40.8446 24.9291 40.5713 22.9515 39.7663 21.1682C38.9613 19.3849 37.6588 17.8718 36.0152 16.8104C34.3715 15.749 32.4565 15.1845 30.5 15.1845C28.5434 15.1845 26.6284 15.749 24.9848 16.8104C23.3412 17.8718 22.0387 19.3849 21.2337 21.1682C20.4287 22.9515 20.1554 24.9291 20.4465 26.8639C20.7376 28.7987 21.5808 30.6083 22.875 32.0758C18.7031 33.761 15.208 36.7823 12.9371 40.6666C11.1273 37.5838 10.171 34.0747 10.1666 30.4999C10.1666 25.1072 12.3089 19.9353 16.1221 16.1221C19.9354 12.3088 25.1072 10.1666 30.5 10.1666C35.8927 10.1666 41.0646 12.3088 44.8778 16.1221C48.6911 19.9353 50.8333 25.1072 50.8333 30.4999C50.8289 34.0747 49.8727 37.5838 48.0629 40.6666Z" fill="#A6A6A6"/>
</svg>
