<svg width="47" height="47" viewBox="0 0 47 47" fill="black" xmlns="http://www.w3.org/2000/svg">
<path fill-rule="evenodd" clip-rule="evenodd" d="M33.2984 15.6703C33.2984 18.2683 32.2657 20.7599 30.4276 22.597C28.5895 24.4341 26.0964 25.4661 23.4969 25.4661C20.8974 25.4661 18.4044 24.4341 16.5663 22.597C14.7281 20.7599 13.6955 18.2683 13.6955 15.6703C13.6955 13.0723 14.7281 10.5807 16.5663 8.74365C18.4044 6.90659 20.8974 5.87454 23.4969 5.87454C26.0964 5.87454 28.5895 6.90659 30.4276 8.74365C32.2657 10.5807 33.2984 13.0723 33.2984 15.6703ZM33.5375 27.7113C36.0126 25.6489 37.7918 22.8745 38.6335 19.7655C39.4749 16.6565 39.3373 13.364 38.2399 10.3359C37.1425 7.30771 35.1383 4.69094 32.5002 2.84153C29.8618 0.992158 26.7175 0 23.495 0C20.2725 0 17.1281 0.992158 14.4899 2.84153C11.8516 4.69094 9.84739 7.30771 8.75002 10.3359C7.65261 13.364 7.51523 16.6565 8.35663 19.7655C9.19803 22.8745 10.9773 25.6489 13.4524 27.7113C9.59295 29.5349 6.30232 32.3732 3.93284 35.9222C1.56336 39.4714 0.204211 43.5974 0.000889977 47.8593C-0.0180072 48.6273 0.264667 49.3722 0.788457 49.9341C1.31221 50.4964 2.0354 50.8314 2.8032 50.8671C3.57097 50.9031 4.32227 50.637 4.89621 50.1261C5.47014 49.6152 5.82111 48.9001 5.87392 48.1336C6.08767 43.606 8.03769 39.3347 11.3193 36.2063C14.6008 33.0776 18.9618 31.3321 23.4969 31.3321C28.0321 31.3321 32.3931 33.0776 35.6747 36.2063C38.9562 39.3347 40.9063 43.606 41.12 48.1336C41.1298 48.5251 41.2172 48.9102 41.3779 49.2672C41.5387 49.6242 41.7692 49.9455 42.0558 50.2119C42.3424 50.4787 42.6796 50.6856 43.0469 50.8204C43.4147 50.9552 43.8056 51.0152 44.1968 50.9967C44.5881 50.9787 44.9715 50.8823 45.3252 50.7138C45.6784 50.5454 45.9948 50.3083 46.2551 50.016C46.5159 49.7237 46.715 49.3824 46.8416 49.0121C46.9687 48.6418 47.02 48.2496 46.993 47.8593C46.7891 43.597 45.4295 39.4706 43.0595 35.9214C40.6891 32.3724 37.3978 29.5344 33.5375 27.7113Z" fill="#000"/>
</svg>
